<svg width="18" height="12" viewBox="0 0 18 12" fill="none" xmlns="http://www.w3.org/2000/svg">
<path d="M11.25 6C12.9075 6 14.25 4.6575 14.25 3C14.25 1.3425 12.9075 0 11.25 0C9.5925 0 8.25 1.3425 8.25 3C8.25 4.6575 9.5925 6 11.25 6ZM11.25 1.5C12.075 1.5 12.75 2.175 12.75 3C12.75 3.825 12.075 4.5 11.25 4.5C10.425 4.5 9.75 3.825 9.75 3C9.75 2.175 10.425 1.5 11.25 1.5ZM11.25 7.5C9.2475 7.5 5.25 8.505 5.25 10.5V12H17.25V10.5C17.25 8.505 13.2525 7.5 11.25 7.5ZM6.75 10.5C6.915 9.96 9.2325 9 11.25 9C13.275 9 15.6 9.9675 15.75 10.5H6.75ZM4.5 8.25V6H6.75V4.5H4.5V2.25H3V4.5H0.75V6H3V8.25H4.5Z" fill="white"/>
</svg>
