<svg width="18" height="18" viewBox="0 0 18 18" fill="none" xmlns="http://www.w3.org/2000/svg">
<path d="M17.3382 8.00246L14.0272 4.68994V1.42283C14.0272 1.33842 14.0082 1.25511 13.9715 1.17911C13.9347 1.10311 13.8813 1.03638 13.8152 0.983918C13.7491 0.931452 13.672 0.894602 13.5896 0.876118C13.5073 0.857635 13.4218 0.857996 13.3396 0.877175L4.40577 2.96174C4.28261 2.99048 4.1728 3.06004 4.09419 3.15911C4.01557 3.25817 3.97279 3.38092 3.97279 3.50739V8.18958H0.995494C0.933535 8.18958 0.872183 8.20179 0.81494 8.2255C0.757697 8.24921 0.705685 8.28396 0.661873 8.32777C0.618061 8.37158 0.583307 8.42359 0.559596 8.48084C0.535885 8.53808 0.523682 8.59943 0.523682 8.66139V16.6659C0.523681 16.7279 0.535885 16.7892 0.559595 16.8465C0.583306 16.9037 0.618059 16.9557 0.661871 16.9995C0.705683 17.0434 0.757695 17.0781 0.814939 17.1018C0.872182 17.1255 0.933534 17.1377 0.995494 17.1377H17.0045C17.0665 17.1377 17.1278 17.1255 17.1851 17.1018C17.2423 17.0781 17.2943 17.0434 17.3382 16.9996C17.382 16.9557 17.4167 16.9037 17.4404 16.8465C17.4641 16.7892 17.4763 16.7279 17.4763 16.6659V8.33601C17.4765 8.27403 17.4644 8.21265 17.4406 8.15539C17.4169 8.09814 17.3821 8.04616 17.3382 8.00246ZM3.96959 16.1941H1.4673V9.13322H3.97278L3.96959 16.1941ZM7.07222 14.498H5.4714V12.4713H7.07222V14.498ZM7.07222 10.8053H5.4714V8.77854H7.07222V10.8053ZM7.07222 7.11258H5.4714V5.08582H7.07222V7.11258ZM9.78617 14.498H8.18534V12.4713H9.78617L9.78617 14.498ZM9.78617 10.8053H8.18534V8.77854H9.78617L9.78617 10.8053ZM9.78617 7.11258H8.18534V5.08582H9.78617L9.78617 7.11258ZM12.5001 14.498H10.8993V12.4713H12.5001L12.5001 14.498ZM12.5001 10.8053H10.8993V8.77854H12.5001L12.5001 10.8053ZM12.5001 7.11258H10.8993V5.08582H12.5001L12.5001 7.11258ZM16.5327 14.4537H14.7192C14.6792 14.4428 14.6381 14.4372 14.5967 14.437H14.0272V6.02471L16.5327 8.53135L16.5327 14.4537Z" fill="black"/>
</svg>
