<svg width="16" height="16" viewBox="0 0 16 16" fill="none" xmlns="http://www.w3.org/2000/svg">
<path fill-rule="evenodd" clip-rule="evenodd" d="M4.49776 0.500305H11.502C14.0528 0.500305 15.4928 1.94706 15.5003 4.49781V11.5028C15.5003 14.0528 14.0528 15.5003 11.502 15.5003H4.49776C1.94701 15.5003 0.500259 14.0528 0.500259 11.5028V4.49781C0.500259 1.94706 1.94701 0.500305 4.49776 0.500305ZM8.03706 12.3953C8.36031 12.3953 8.62956 12.1553 8.65956 11.8328V4.1903C8.68956 3.9578 8.57781 3.72455 8.37531 3.5978C8.16456 3.4703 7.90956 3.4703 7.70781 3.5978C7.50456 3.72455 7.39281 3.9578 7.41456 4.1903V11.8328C7.45281 12.1553 7.72206 12.3953 8.03706 12.3953ZM11.4878 12.3953C11.8028 12.3953 12.0721 12.1553 12.1103 11.8328V9.37281C12.1321 9.13206 12.0203 8.90781 11.8171 8.78031C11.6153 8.65281 11.3603 8.65281 11.1503 8.78031C10.9471 8.90781 10.8353 9.13206 10.8653 9.37281V11.8328C10.8953 12.1553 11.1646 12.3953 11.4878 12.3953ZM5.16453 11.8328C5.13453 12.1553 4.86528 12.3953 4.54203 12.3953C4.21953 12.3953 3.94953 12.1553 3.92028 11.8328V6.6503C3.89778 6.41705 4.00953 6.1853 4.21278 6.0578C4.41453 5.9303 4.67028 5.9303 4.87278 6.0578C5.07453 6.1853 5.18778 6.41705 5.16453 6.6503V11.8328Z" fill="black"/>
</svg>
