<svg width="18" height="18" viewBox="0 0 18 18" fill="none" xmlns="http://www.w3.org/2000/svg">
<path d="M16.3642 4.79923H14.3977V1.63291C14.3977 1.39373 14.2037 1.19988 13.9645 1.19995H13.6309C13.3917 1.19995 13.1979 1.39385 13.1979 1.63303V4.79923H11.232C10.9928 4.79923 10.7989 4.99313 10.7989 5.23231V11.998H6.43453C6.19403 11.998 5.99905 12.193 5.99905 12.4335V16.3629C5.99971 16.6029 6.1945 16.7972 6.43453 16.7972H16.3642C16.6034 16.7972 16.7973 16.6033 16.7973 16.3641V5.23195C16.7973 4.99277 16.6034 4.79923 16.3642 4.79923ZM8.39869 14.3977H7.19869V13.1977H8.39869V14.3977ZM10.7987 14.3977H9.59869V13.1977H10.7987V14.3977ZM13.1987 14.3977H11.9987V13.1977H13.1987V14.3977ZM13.1987 11.9977H11.9987V10.7977H13.1987V11.9977ZM13.1987 9.59767H11.9987V8.39767H13.1987V9.59767ZM13.1987 7.19767H11.9987V5.99767H13.1987V7.19767ZM15.5987 14.3965H14.3987V13.1965H15.5987V14.3965ZM15.5987 11.9965H14.3987V10.7965H15.5987V11.9965ZM15.5987 9.59647H14.3987V8.39647H15.5987V9.59647ZM15.5987 7.19647H14.3987V5.99647H15.5987V7.19647ZM9.59845 1.63291C9.59838 1.39378 9.40451 1.19995 9.16537 1.19995H6.43201C6.19283 1.19995 5.99893 1.39385 5.99893 1.63303V3.59995H4.03201C3.79367 3.60054 3.6006 3.79361 3.60001 4.03195V4.79923H1.63297C1.39398 4.79929 1.20022 4.99296 1.20001 5.23195V16.3638C1.20001 16.6029 1.39391 16.7968 1.63309 16.7968H4.79929V10.7983H9.59845V1.63291ZM3.60001 14.3977H2.40001V13.1977H3.60001V14.3977ZM3.60001 11.9977H2.40001V10.7977H3.60001V11.9977ZM3.60001 9.59767H2.40001V8.39767H3.60001V9.59767ZM3.60001 7.19767H2.40001V5.99767H3.60001V7.19767ZM6.00001 9.59767H4.80001V8.39767H6.00001V9.59767ZM6.00001 7.19767H4.80001V5.99767H6.00001V7.19767ZM8.40001 9.59767H7.20001V8.39767H8.40001V9.59767ZM8.40001 7.19767H7.20001V5.99767H8.40001V7.19767ZM8.40001 4.79767H7.20001V3.59995H8.40001V4.79995V4.79767Z" fill="white"/>
</svg>
