<svg width="16" height="16" viewBox="0 0 16 16" fill="none" xmlns="http://www.w3.org/2000/svg">
<path d="M15.3642 3.79928H13.3977V0.632957C13.3977 0.393773 13.2037 0.199925 12.9645 0.199997H12.6309C12.3917 0.199997 12.1979 0.393893 12.1979 0.633077V3.79928H10.232C9.99283 3.79928 9.79893 3.99317 9.79893 4.23236V10.9981H5.43453C5.19403 10.9981 4.99905 11.1931 4.99905 11.4336V15.363C4.99971 15.603 5.1945 15.7972 5.43453 15.7972H15.3642C15.6034 15.7972 15.7973 15.6033 15.7973 15.3642V4.232C15.7973 3.99281 15.6034 3.79928 15.3642 3.79928ZM7.39869 13.3977H6.19869V12.1977H7.39869V13.3977ZM9.79869 13.3977H8.59869V12.1977H9.79869V13.3977ZM12.1987 13.3977H10.9987V12.1977H12.1987V13.3977ZM12.1987 10.9977H10.9987V9.79772H12.1987V10.9977ZM12.1987 8.59772H10.9987V7.39772H12.1987V8.59772ZM12.1987 6.19772H10.9987V4.99772H12.1987V6.19772ZM14.5987 13.3965H13.3987V12.1965H14.5987V13.3965ZM14.5987 10.9965H13.3987V9.79652H14.5987V10.9965ZM14.5987 8.59652H13.3987V7.39652H14.5987V8.59652ZM14.5987 6.19652H13.3987V4.99652H14.5987V6.19652ZM8.59845 0.632957C8.59838 0.393821 8.40451 0.199997 8.16537 0.199997H5.43201C5.19283 0.199997 4.99893 0.393893 4.99893 0.633077V2.6H3.03201C2.79367 2.60058 2.6006 2.79365 2.60001 3.032V3.79928H0.632972C0.39398 3.79934 0.200216 3.993 0.200012 4.232V15.3638C0.200012 15.603 0.393908 15.7969 0.633092 15.7969H3.79929V9.79832H8.59845V0.632957ZM2.60001 13.3977H1.40001V12.1977H2.60001V13.3977ZM2.60001 10.9977H1.40001V9.79772H2.60001V10.9977ZM2.60001 8.59772H1.40001V7.39772H2.60001V8.59772ZM2.60001 6.19772H1.40001V4.99772H2.60001V6.19772ZM5.00001 8.59772H3.80001V7.39772H5.00001V8.59772ZM5.00001 6.19772H3.80001V4.99772H5.00001V6.19772ZM7.40001 8.59772H6.20001V7.39772H7.40001V8.59772ZM7.40001 6.19772H6.20001V4.99772H7.40001V6.19772ZM7.40001 3.79772H6.20001V2.6H7.40001V3.8V3.79772Z" fill="black"/>
</svg>
