<svg width="18" height="18" viewBox="0 0 18 18" fill="none" xmlns="http://www.w3.org/2000/svg">
<g clip-path="url(#clip0_128_13249)">
<path d="M15.1231 14.4H2.87694C2.28309 14.4 1.80005 13.9061 1.80005 13.3084V11.8104C1.80005 11.5556 2.00667 11.3555 2.26159 11.3555H7.14654C7.33357 11.3555 7.50201 11.4685 7.57324 11.6412L7.77222 12.1243H10.2221L10.4211 11.6412C10.4923 11.4685 10.6609 11.3555 10.8478 11.3555H15.7384C15.9933 11.3555 16.1999 11.5556 16.1999 11.8104V13.3084C16.1999 13.9061 15.7168 14.4 15.123 14.4H15.1231ZM2.72317 12.278V13.3084C2.72317 13.3959 2.79358 13.4775 2.87705 13.4775H15.1232C15.2066 13.4775 15.2771 13.396 15.2771 13.3084V12.278H11.1569L10.9579 12.7611C10.8867 12.9339 10.7182 13.0469 10.5312 13.0469H7.4635C7.27647 13.0469 7.10803 12.9339 7.0368 12.7611L6.83782 12.278H2.72317Z" fill="white"/>
<path d="M12.1938 3.19191C12.1938 1.4319 10.7611 0 9.00005 0C7.23901 0 5.80634 1.43187 5.80634 3.19191C5.80634 4.18171 6.25955 5.06754 6.96932 5.65347V10.2854C6.96932 10.6519 7.3908 10.8697 7.68973 10.6673L9.00247 9.77855L10.3099 10.6669C10.6067 10.8686 11.0309 10.6475 11.0309 10.2854L11.0308 5.65298C11.7406 5.06708 12.1938 4.18163 12.1938 3.19194L12.1938 3.19191ZM9.00005 0.922629C10.2521 0.922629 11.2707 1.94066 11.2707 3.19191C11.2707 4.44327 10.2521 5.4612 9.00005 5.4612C7.74797 5.4612 6.72935 4.44317 6.72935 3.19191C6.72935 1.94066 7.74797 0.922629 9.00005 0.922629ZM10.1078 9.414L9.26241 8.83954C9.10602 8.73337 8.90061 8.73307 8.74412 8.83914L7.89233 9.41571V6.18651C8.2421 6.31568 8.61876 6.38388 9.00005 6.38388C9.38134 6.38388 9.75803 6.31568 10.1078 6.18651V9.414Z" fill="white"/>
<path d="M15.2154 10.5866H14.2923V5.59165C14.2923 5.50999 14.2269 5.45102 14.1402 5.45102L12.7846 5.45092V4.52832H14.1402C14.7331 4.52832 15.2154 5.00393 15.2154 5.59155L15.2154 10.5866Z" fill="white"/>
<path d="M3.70776 10.5866H2.78467V5.59155C2.78467 5.00393 3.26861 4.52832 3.86336 4.52832H5.18474V5.45092L3.86336 5.45082C3.77466 5.45082 3.70776 5.50989 3.70776 5.59145L3.70776 10.5866Z" fill="white"/>
<path d="M10.404 2.81034L9.4338 2.66981L8.99997 1.79321L8.56615 2.66981L7.59595 2.81034L8.29808 3.49277L8.13234 4.45626L8.99999 4.00134L9.86764 4.45626L9.70191 3.49277L10.404 2.81034Z" fill="white"/>
</g>
<defs>
<clipPath id="clip0_128_13249">
<rect width="18" height="18" fill="white"/>
</clipPath>
</defs>
</svg>
