<svg width="16" height="15" viewBox="0 0 16 15" fill="none" xmlns="http://www.w3.org/2000/svg">
<path d="M14.1231 14.4H1.87694C1.28309 14.4 0.800049 13.9061 0.800049 13.3084V11.8104C0.800049 11.5556 1.00667 11.3555 1.26159 11.3555H6.14654C6.33357 11.3555 6.50201 11.4685 6.57324 11.6412L6.77222 12.1243H9.2221L9.42109 11.6412C9.4923 11.4685 9.66085 11.3555 9.84779 11.3555H14.7384C14.9933 11.3555 15.1999 11.5556 15.1999 11.8104V13.3084C15.1999 13.9061 14.7168 14.4 14.123 14.4H14.1231ZM1.72317 12.278V13.3084C1.72317 13.3959 1.79358 13.4775 1.87705 13.4775H14.1232C14.2066 13.4775 14.2771 13.396 14.2771 13.3084V12.278H10.1569L9.95792 12.7611C9.88671 12.9339 9.71816 13.0469 9.53122 13.0469H6.4635C6.27647 13.0469 6.10803 12.9339 6.0368 12.7611L5.83782 12.278H1.72317Z" fill="black"/>
<path d="M11.1937 3.19191C11.1937 1.4319 9.76103 0 7.99999 0C6.23895 0 4.80627 1.43187 4.80627 3.19191C4.80627 4.18171 5.25949 5.06754 5.96925 5.65347V10.2854C5.96925 10.6519 6.39074 10.8697 6.68967 10.6673L8.00241 9.77855L9.30982 10.6669C9.60664 10.8686 10.0308 10.6475 10.0308 10.2854L10.0307 5.65298C10.7405 5.06708 11.1937 4.18163 11.1937 3.19194L11.1937 3.19191ZM7.99999 0.922629C9.25204 0.922629 10.2707 1.94066 10.2707 3.19191C10.2707 4.44327 9.25207 5.4612 7.99999 5.4612C6.74791 5.4612 5.72929 4.44317 5.72929 3.19191C5.72929 1.94066 6.74791 0.922629 7.99999 0.922629ZM9.10771 9.414L8.26235 8.83954C8.10596 8.73337 7.90055 8.73307 7.74405 8.83914L6.89227 9.41571V6.18651C7.24203 6.31568 7.6187 6.38388 7.99999 6.38388C8.38128 6.38388 8.75797 6.31568 9.10771 6.18651V9.414Z" fill="black"/>
<path d="M14.2155 10.5866H13.2924V5.59165C13.2924 5.50999 13.227 5.45102 13.1403 5.45102L11.7847 5.45092V4.52832H13.1403C13.7331 4.52832 14.2155 5.00393 14.2155 5.59155L14.2155 10.5866Z" fill="black"/>
<path d="M2.70776 10.5866H1.78467V5.59155C1.78467 5.00393 2.26861 4.52832 2.86336 4.52832H4.18474V5.45092L2.86336 5.45082C2.77466 5.45082 2.70776 5.50989 2.70776 5.59145L2.70776 10.5866Z" fill="black"/>
<path d="M9.404 2.81034L8.4338 2.66981L7.99997 1.79321L7.56615 2.66981L6.59595 2.81034L7.29808 3.49277L7.13234 4.45626L7.99999 4.00134L8.86764 4.45626L8.70191 3.49277L9.404 2.81034Z" fill="black"/>
</svg>
