<svg width="16" height="16" viewBox="0 0 16 16" fill="none" xmlns="http://www.w3.org/2000/svg">
<path fill-rule="evenodd" clip-rule="evenodd" d="M4.49776 0.500244H11.502C14.0528 0.500244 15.4928 1.94699 15.5003 4.49774V11.5027C15.5003 14.0527 14.0528 15.5002 11.502 15.5002H4.49776C1.94701 15.5002 0.500259 14.0527 0.500259 11.5027V4.49774C0.500259 1.94699 1.94701 0.500244 4.49776 0.500244ZM8.03706 12.3952C8.36031 12.3952 8.62956 12.1552 8.65956 11.8327V4.19024C8.68956 3.95774 8.57781 3.72449 8.37531 3.59774C8.16456 3.47024 7.90956 3.47024 7.70781 3.59774C7.50456 3.72449 7.39281 3.95774 7.41456 4.19024V11.8327C7.45281 12.1552 7.72206 12.3952 8.03706 12.3952ZM11.4878 12.3952C11.8028 12.3952 12.0721 12.1552 12.1103 11.8327V9.37275C12.1321 9.132 12.0203 8.90775 11.8171 8.78025C11.6153 8.65275 11.3603 8.65275 11.1503 8.78025C10.9471 8.90775 10.8353 9.132 10.8653 9.37275V11.8327C10.8953 12.1552 11.1646 12.3952 11.4878 12.3952ZM5.16453 11.8327C5.13453 12.1552 4.86528 12.3952 4.54203 12.3952C4.21953 12.3952 3.94953 12.1552 3.92028 11.8327V6.65024C3.89778 6.41699 4.00953 6.18524 4.21278 6.05774C4.41453 5.93024 4.67028 5.93024 4.87278 6.05774C5.07453 6.18524 5.18778 6.41699 5.16453 6.65024V11.8327Z" fill="white"/>
</svg>
