<svg width="65" height="65" viewBox="0 0 65 65" fill="none" xmlns="http://www.w3.org/2000/svg">
<circle cx="32.5" cy="32.5" r="32.5" fill="#BFB9FF"/>
<path fill-rule="evenodd" clip-rule="evenodd" d="M44.4396 51.926H20.0019C18.3572 51.926 17 50.5958 17 48.9241V16.0019C17 14.3302 18.3212 13 20.0019 13H44.4396C46.1114 13 47.4415 14.3572 47.4415 16.0019V48.9241C47.4415 50.5958 46.0844 51.926 44.4396 51.926ZM42.9207 40.9789H21.5208C20.7749 40.9789 20.7749 39.8375 21.5208 39.8375H42.8848C43.6487 39.8375 43.6128 40.9789 42.9207 40.9789ZM42.9207 38.1567H21.5208C20.7749 38.1567 20.7749 37.0243 21.5208 37.0243H42.8848C43.6487 37.0243 43.6128 38.1567 42.9207 38.1567ZM42.9207 35.3076H21.5208C20.7749 35.3076 20.7749 34.1752 21.5208 34.1752H42.8848C43.6487 34.1752 43.6128 35.3076 42.9207 35.3076ZM37.6629 32.3057C37.3483 32.3057 37.0966 32.0541 37.0966 31.7305C37.0966 29.0432 34.9126 26.8322 32.1893 26.8322C29.502 26.8322 27.282 29.0162 27.282 31.7305C27.282 32.4855 26.1406 32.4855 26.1406 31.7305C26.1406 28.414 28.8369 25.7177 32.1534 25.7177C35.4788 25.7177 38.1752 28.414 38.1752 31.7305C38.2381 32.0541 37.9774 32.3057 37.6629 32.3057ZM32.2163 25.0256C30.194 25.0256 28.5762 23.3809 28.5762 21.3496C28.5762 19.3274 30.23 17.7096 32.2163 17.7096C34.2475 17.7096 35.8923 19.3633 35.8923 21.3496C35.8923 23.3809 34.2475 25.0256 32.2163 25.0256ZM32.2163 18.7881C30.8322 18.7881 29.6907 19.9296 29.6907 21.3227C29.6907 22.7427 30.8322 23.8842 32.2163 23.8842C33.6453 23.8842 34.7868 22.7427 34.7868 21.3227C34.7868 19.9296 33.6453 18.7881 32.2163 18.7881ZM34.1846 48.951H30.2929C29.5379 48.951 29.5379 47.8096 30.2929 47.8096H34.1846C34.9306 47.8096 34.9306 48.951 34.1846 48.951ZM37.0607 16.1907H27.4078C26.527 16.1907 25.799 15.4626 25.799 14.5818V14.1055H20.0019C18.9593 14.1055 18.1055 14.9593 18.1055 16.0019V44.8077H46.3361V16.0019C46.3361 14.9593 45.4463 14.1055 44.4396 14.1055H38.6785V14.6088C38.6425 15.4986 37.9505 16.1907 37.0607 16.1907ZM26.9315 14.1055C26.9315 14.474 26.8416 15.1211 27.4438 15.1211H37.0966C37.6898 15.1211 37.5999 14.474 37.5999 14.1055H26.9315ZM46.3361 45.9491H18.1055V48.9241C18.1055 49.9667 18.9593 50.8205 20.0019 50.8205H44.4396C45.4822 50.8205 46.3361 49.9667 46.3361 48.9241V45.9491Z" fill="#4D4D4D"/>
<path fill-rule="evenodd" clip-rule="evenodd" d="M21.5209 34.1749H42.8848C43.6487 34.1749 43.6128 35.3073 42.9207 35.3073H21.5209C20.7749 35.3073 20.7749 34.1749 21.5209 34.1749ZM21.5209 37.024H42.8848C43.6487 37.024 43.6128 38.1565 42.9207 38.1565H21.5209C20.7749 38.1565 20.7749 37.024 21.5209 37.024ZM21.5209 39.8372H42.8848C43.6487 39.8372 43.6128 40.9786 42.9207 40.9786H21.5209C20.7749 40.9786 20.7749 39.8372 21.5209 39.8372ZM18.1055 44.8074H46.3361V16.0016C46.3361 14.9591 45.4463 14.1052 44.4397 14.1052H38.6785V14.6085C38.6426 15.4983 37.9505 16.1904 37.0607 16.1904H27.4079C26.5271 16.1904 25.7991 15.4624 25.7991 14.5816V14.1052H20.0019C18.9594 14.1052 18.1055 14.9591 18.1055 16.0016V44.8074ZM37.6629 32.3054C37.3483 32.3054 37.0967 32.0538 37.0967 31.7302C37.0967 29.0429 34.9126 26.8319 32.1893 26.8319C29.502 26.8319 27.282 29.0159 27.282 31.7302C27.282 32.4852 26.1406 32.4852 26.1406 31.7302C26.1406 28.4137 28.8369 25.7174 32.1534 25.7174C35.4789 25.7174 38.1752 28.4137 38.1752 31.7302C38.2381 32.0538 37.9775 32.3054 37.6629 32.3054ZM32.2163 25.0254C30.1941 25.0254 28.5763 23.3806 28.5763 21.3494C28.5763 19.3271 30.23 17.7093 32.2163 17.7093C34.2475 17.7093 35.8923 19.3631 35.8923 21.3494C35.8923 23.3806 34.2475 25.0254 32.2163 25.0254Z" fill="#D9F2EB"/>
<path fill-rule="evenodd" clip-rule="evenodd" d="M32.2163 23.8841C33.6453 23.8841 34.7868 22.7427 34.7868 21.3226C34.7868 19.9295 33.6453 18.7881 32.2163 18.7881C30.8322 18.7881 29.6907 19.9295 29.6907 21.3226C29.6907 22.7427 30.8322 23.8841 32.2163 23.8841Z" fill="#F3A766"/>
<path fill-rule="evenodd" clip-rule="evenodd" d="M27.4437 15.1208H37.0966C37.6898 15.1208 37.5999 14.4737 37.5999 14.1052H26.9314C26.9314 14.4737 26.8415 15.1208 27.4437 15.1208Z" fill="#99A4AC"/>
<path fill-rule="evenodd" clip-rule="evenodd" d="M20.0019 50.8206H44.4397C45.4822 50.8206 46.3361 49.9667 46.3361 48.9242V45.9492H18.1055V48.9242C18.1055 49.9667 18.9594 50.8206 20.0019 50.8206ZM34.1846 47.8097C34.9306 47.8097 34.9306 48.9511 34.1846 48.9511H30.2929C29.538 48.9511 29.538 47.8097 30.2929 47.8097H34.1846Z" fill="#99A4AC"/>
</svg>
