<svg width="65" height="65" viewBox="0 0 65 65" fill="none" xmlns="http://www.w3.org/2000/svg">
<circle cx="32.5" cy="32.5" r="32.5" fill="#9E9191"/>
<path d="M40.1159 20.6202C38.7935 18.6768 37.3297 16.551 37.3297 14.1018C37.3297 13.9094 36.8244 14.5516 36.7918 14.594C36.4306 15.1073 36.1594 15.6783 35.9899 16.2826C35.2557 18.8379 36.3629 21.6129 35.9801 24.2399C35.6653 26.4006 34.0911 28.6059 32.0355 29.4197C29.4116 30.4583 27.5344 28.738 27.1264 26.1829C26.7467 23.8046 27.3563 21.1517 25.744 19.0992C25.7081 19.0536 25.1441 18.3364 25.1441 18.5516C25.0763 20.972 23.8208 23.1269 22.6357 25.1628C19.075 31.28 17.1762 40.1273 22.0233 46.1139C27.4893 52.8651 38.3424 52.3633 43.2791 45.273C44.8449 43.0052 45.7306 40.3375 45.8321 37.5836C46.126 31.6459 43.338 25.3556 40.1159 20.6202Z" fill="#FFBF00"/>
</svg>
