<svg width="12" height="18" viewBox="0 0 12 18" fill="none" xmlns="http://www.w3.org/2000/svg">
<path d="M0.878326 9.30308C0.868799 9.35615 0.862941 9.41049 0.862941 9.46628V17.0711C0.862941 17.5843 1.28363 18 1.80226 18C2.32103 18 2.74172 17.5843 2.74172 17.0711V10.1823L3.09385 10.2528V17.0711C3.09385 17.5843 3.51454 18 4.03317 18C4.55194 18 4.97263 17.5843 4.97263 17.0711V9.75099L5.70055 6.19536C5.8018 6.58175 5.85693 7.15559 5.78581 7.98929C5.7647 8.2367 5.89959 8.47149 6.12533 8.58023C6.21006 8.62102 6.30103 8.6409 6.39133 8.6409C6.54168 8.6409 6.69022 8.5858 6.80515 8.48022L7.89436 7.47964L7.80151 7.65921L8.03983 7.77971L8.46694 6.95364L9.16421 6.31312C9.40022 6.0963 9.42213 5.73758 9.22162 5.49406L12 0.120498L11.7617 0L9.00687 5.32795C8.78948 5.22802 8.52339 5.26106 8.33683 5.43236L7.00573 6.65517C6.93291 5.8676 6.71589 5.26027 6.35637 4.84139C6.04517 4.47884 5.70877 4.35532 5.52317 4.31334C5.51167 4.31032 5.50035 4.30695 5.48854 4.30459L2.61158 3.72861C2.48931 3.70414 2.3684 3.71945 2.26205 3.76505C2.2473 3.7697 2.23253 3.77435 2.21794 3.78019L2.20028 3.78724C1.83541 3.93243 1.43668 4.17319 1.03122 4.73829C0.696204 5.20522 0.356605 5.89335 0.027697 6.93423C-0.0408564 7.15104 0.0201297 7.38759 0.185363 7.54556C0.300588 7.65577 0.452761 7.71453 0.607904 7.71453C0.675128 7.71453 0.742937 7.70353 0.808527 7.68086L4.10823 6.53941C4.42504 6.4298 4.59206 6.08693 4.48128 5.77356C4.37044 5.46019 4.02379 5.29496 3.70683 5.40464L1.63165 6.12251C1.82804 5.70115 2.01031 5.43059 2.16833 5.25307L2.33506 5.32855C2.23133 5.43754 2.11337 5.59281 1.9846 5.81736L3.6491 5.24154C3.73272 5.21263 3.81968 5.19795 3.9076 5.19795C4.2397 5.19795 4.53647 5.40632 4.64621 5.71647C4.78859 6.11928 4.57313 6.56164 4.16595 6.70251L1.19313 7.73088L0.8885 9.21885C0.882725 9.24707 0.879861 9.27515 0.878326 9.30308Z" fill="black"/>
<path d="M5.28679 3.42757C6.11761 2.98419 6.42765 1.95872 5.9793 1.13713C5.53094 0.315538 4.49396 0.00893607 3.66314 0.452316C2.83232 0.895696 2.52228 1.92116 2.97064 2.74275C3.419 3.56435 4.45597 3.87095 5.28679 3.42757Z" fill="black"/>
</svg>
