<svg width="14" height="14" viewBox="0 0 14 14" fill="none" xmlns="http://www.w3.org/2000/svg">
<path d="M6.99997 0.153564C3.22717 0.153564 0.159973 3.22076 0.159973 6.99356C0.159973 10.7664 3.22717 13.8336 6.99997 13.8336C10.7728 13.8336 13.84 10.7664 13.84 6.99356C13.84 3.22076 10.7728 0.153564 6.99997 0.153564ZM10.8304 7.64157H9.79357L8.7856 9.65751C8.65592 9.87357 8.43997 10.0176 8.19517 10.0176C7.95037 10.0176 7.71997 9.87358 7.61923 9.65762L5.80477 6.07202L5.19997 7.28159C5.08476 7.49755 4.8688 7.64159 4.62402 7.64159H3.18402C2.82402 7.64159 2.53605 7.35362 2.53605 6.99362C2.53605 6.63362 2.82402 6.34564 3.18402 6.34564H4.22082L5.2288 4.32969C5.44476 3.89767 6.16475 3.89767 6.38082 4.32969L8.18083 7.91529L8.79997 6.69124C8.91519 6.47528 9.13115 6.33124 9.37592 6.33124H10.8159C11.1759 6.33124 11.4639 6.61922 11.4639 6.97922C11.464 7.33922 11.1904 7.64157 10.8304 7.64157Z" fill="black"/>
</svg>
