<svg width="18" height="18" viewBox="0 0 18 18" fill="none" xmlns="http://www.w3.org/2000/svg">
<g clip-path="url(#clip0_125_10142)">
<path d="M7.59375 5.90625H10.4062C10.8538 5.90625 11.283 6.08403 11.5995 6.40052C11.916 6.71698 12.0938 7.1462 12.0938 7.59375V9.84375H5.90625V7.59375C5.90625 7.1462 6.08403 6.71698 6.40052 6.40052C6.71698 6.08403 7.1462 5.90625 7.59375 5.90625Z" fill="black"/>
<path d="M12.0938 9.28125V9.84375H5.90625V7.59375C5.90625 7.1462 6.08403 6.71698 6.40052 6.40052C6.71698 6.08403 7.1462 5.90625 7.59375 5.90625H7.875V7.59375C7.875 8.68106 8.75644 9.28125 9.84375 9.28125H12.0938Z" fill="black"/>
<path d="M9.84375 0.84375H8.15625C7.22427 0.84375 6.46875 1.59927 6.46875 2.53125C6.46875 3.46323 7.22427 4.21875 8.15625 4.21875H9.84375C10.7757 4.21875 11.5312 3.46323 11.5312 2.53125C11.5312 1.59927 10.7757 0.84375 9.84375 0.84375Z" fill="black"/>
<path d="M11.3316 3.33C11.2528 3.4749 11.1533 3.60754 11.0363 3.72375C10.8802 3.88119 10.6944 4.00604 10.4897 4.09103C10.285 4.176 10.0654 4.21942 9.84375 4.21875H8.15625C7.7087 4.21875 7.27948 4.04097 6.96302 3.72448C6.64653 3.40802 6.46875 2.9788 6.46875 2.53125C6.46943 2.0839 6.64743 1.65507 6.96375 1.33875C7.28007 1.02243 7.70889 0.844419 8.15625 0.84375H9.01406C9.00368 0.889881 8.99896 0.937102 9 0.984375C9 1.575 9.62719 2.07 10.4766 2.21063C10.6138 2.23234 10.7389 2.30235 10.8291 2.40805C10.9193 2.51376 10.9688 2.6482 10.9688 2.78719C10.9684 2.86448 10.9834 2.94106 11.0128 3.0125C11.0423 3.08396 11.0856 3.14885 11.1403 3.20344C11.1945 3.25851 11.2597 3.30159 11.3316 3.33Z" fill="black"/>
<path d="M7.3125 8.71875H5.90625V9.84375H7.3125V8.71875Z" fill="black"/>
<path d="M9.84375 6.1875L9 7.03125L8.15625 6.1875V5.34375H9.84375V6.1875Z" fill="black"/>
<path d="M9.84375 5.75719C9.57974 5.99352 9.24823 6.14107 8.89594 6.17906C9.1019 6.31873 9.33629 6.41093 9.58219 6.44906L9 7.03125L8.15625 6.1875V5.34375H9.84375V5.75719Z" fill="black"/>
<path d="M9 5.90625C8.55245 5.90625 8.12323 5.72847 7.80677 5.41198C7.49028 5.09552 7.3125 4.6663 7.3125 4.21875V2.8125H7.64213C7.89432 2.81253 8.14404 2.76286 8.37703 2.66634C8.61002 2.56982 8.82172 2.42835 9 2.25C9.17828 2.42835 9.38998 2.56982 9.62297 2.66634C9.85596 2.76286 10.1057 2.81253 10.3579 2.8125H10.6875V4.21875C10.6875 4.6663 10.5097 5.09552 10.1932 5.41198C9.87677 5.72847 9.44755 5.90625 9 5.90625Z" fill="black"/>
<path d="M7.875 3.35812V3.65625C7.87506 3.9555 7.95468 4.24932 8.10571 4.50768C8.25674 4.76601 8.47375 4.9795 8.7345 5.12634C8.99525 5.27318 9.29034 5.34802 9.58953 5.34324C9.88875 5.33843 10.1813 5.25417 10.4372 5.09906C10.2456 5.41294 9.95659 5.65554 9.61428 5.7899C9.27197 5.92428 8.89512 5.94301 8.54117 5.84331C8.18722 5.74357 7.87556 5.53087 7.65374 5.23758C7.43192 4.94426 7.31208 4.58648 7.3125 4.21875V2.8125H7.64156C8.15102 2.81242 8.63961 2.6101 9 2.25C9.36039 2.6101 9.84898 2.81242 10.3584 2.8125H10.6875V3.375H10.3584C9.84898 3.37492 9.36039 3.17261 9 2.8125C8.69681 3.11543 8.30059 3.30761 7.875 3.35812Z" fill="black"/>
<path d="M10.6875 7.875V9.28125H10.125V8.4375C10.125 8.28833 10.1843 8.14525 10.2898 8.03976C10.3953 7.93426 10.5383 7.875 10.6875 7.875Z" fill="black"/>
<path d="M7.3125 8.71875V9.84375H6.75V9.5625C6.74955 9.41347 6.69015 9.27065 6.58477 9.16523C6.47935 9.05985 6.33653 9.00045 6.1875 9H5.90625V8.71875H7.3125Z" fill="black"/>
<path d="M10.6875 9.84375H12.0938V8.71875H10.6875V9.84375Z" fill="black"/>
<path d="M10.6875 8.71875V9.84375H11.25V9.5625C11.2505 9.41347 11.3099 9.27065 11.4152 9.16523C11.5206 9.05985 11.6635 9.00045 11.8125 9H12.0938V8.71875H10.6875Z" fill="black"/>
<path d="M8.4375 4.21875C8.59283 4.21875 8.71875 4.09283 8.71875 3.9375C8.71875 3.78217 8.59283 3.65625 8.4375 3.65625C8.28217 3.65625 8.15625 3.78217 8.15625 3.9375C8.15625 4.09283 8.28217 4.21875 8.4375 4.21875Z" fill="black"/>
<path d="M9.5625 4.21875C9.71783 4.21875 9.84375 4.09283 9.84375 3.9375C9.84375 3.78217 9.71783 3.65625 9.5625 3.65625C9.40717 3.65625 9.28125 3.78217 9.28125 3.9375C9.28125 4.09283 9.40717 4.21875 9.5625 4.21875Z" fill="black"/>
<path d="M14.0625 4.78125H12.6562C12.5817 4.78125 12.5101 4.75161 12.4574 4.69887C12.4046 4.64614 12.375 4.57459 12.375 4.5C12.375 4.42541 12.4046 4.35386 12.4574 4.30113C12.5101 4.24839 12.5817 4.21875 12.6562 4.21875H14.0625C14.1371 4.21875 14.2086 4.24839 14.2614 4.30113C14.3141 4.35386 14.3438 4.42541 14.3438 4.5C14.3438 4.57459 14.3141 4.64614 14.2614 4.69887C14.2086 4.75161 14.1371 4.78125 14.0625 4.78125Z" fill="black"/>
<path d="M12.0938 3.65638C12.0304 3.65649 11.9688 3.63518 11.919 3.59586C11.8692 3.55654 11.8342 3.50155 11.8196 3.43982C11.805 3.37808 11.8117 3.31323 11.8386 3.2558C11.8655 3.19837 11.911 3.15171 11.9678 3.12341L13.0928 2.5609C13.1259 2.54439 13.1619 2.53455 13.1987 2.53195C13.2356 2.52935 13.2726 2.53403 13.3076 2.54573C13.3427 2.55743 13.3751 2.57592 13.403 2.60014C13.4309 2.62436 13.4537 2.65384 13.4702 2.6869C13.4868 2.71995 13.4966 2.75594 13.4992 2.7928C13.5018 2.82965 13.4971 2.86666 13.4854 2.9017C13.4737 2.93678 13.4552 2.96918 13.431 2.99708C13.4068 3.02498 13.3773 3.04784 13.3442 3.06435L12.2192 3.62685C12.1803 3.64626 12.1373 3.65635 12.0938 3.65638Z" fill="black"/>
<path d="M13.2187 6.46888C13.1752 6.46885 13.1322 6.45876 13.0933 6.43935L11.9683 5.87685C11.9015 5.84349 11.8507 5.78499 11.8271 5.7142C11.8035 5.64344 11.8089 5.56615 11.8423 5.49941C11.8756 5.43264 11.9341 5.38185 12.0049 5.35822C12.0757 5.3346 12.153 5.34006 12.2197 5.37341L13.3447 5.93591C13.4015 5.96421 13.447 6.01087 13.4739 6.0683C13.5008 6.12573 13.5075 6.19058 13.4929 6.25232C13.4783 6.31405 13.4433 6.36904 13.3935 6.40836C13.3437 6.44767 13.2821 6.46899 13.2187 6.46888Z" fill="black"/>
<path d="M5.34375 4.78125H3.9375C3.86291 4.78125 3.79136 4.75161 3.73863 4.69887C3.68589 4.64614 3.65625 4.57459 3.65625 4.5C3.65625 4.42541 3.68589 4.35386 3.73863 4.30113C3.79136 4.24839 3.86291 4.21875 3.9375 4.21875H5.34375C5.41834 4.21875 5.48989 4.24839 5.54262 4.30113C5.59536 4.35386 5.625 4.42541 5.625 4.5C5.625 4.57459 5.59536 4.64614 5.54262 4.69887C5.48989 4.75161 5.41834 4.78125 5.34375 4.78125Z" fill="black"/>
<path d="M5.9062 3.65638C5.86267 3.65635 5.81975 3.64626 5.78077 3.62685L4.65577 3.06435C4.62272 3.04784 4.59324 3.02498 4.56903 2.99708C4.54479 2.96918 4.52631 2.93678 4.51461 2.9017C4.50291 2.86666 4.49821 2.82965 4.50083 2.7928C4.50344 2.75594 4.51326 2.71995 4.52977 2.6869C4.54628 2.65384 4.56914 2.62436 4.59704 2.60014C4.62494 2.57592 4.65734 2.55743 4.69239 2.54573C4.72746 2.53403 4.76444 2.52935 4.80131 2.53195C4.83816 2.53455 4.87416 2.54439 4.9072 2.5609L6.0322 3.12341C6.08899 3.15171 6.13452 3.19837 6.16144 3.2558C6.18835 3.31323 6.19505 3.37808 6.18045 3.43982C6.16585 3.50155 6.13084 3.55654 6.08106 3.59586C6.03125 3.63518 5.96965 3.65649 5.9062 3.65638Z" fill="black"/>
<path d="M4.78131 6.46888C4.71786 6.46899 4.65626 6.44767 4.60648 6.40836C4.55667 6.36904 4.52166 6.31405 4.50706 6.25232C4.49246 6.19058 4.49916 6.12573 4.52607 6.0683C4.55299 6.01087 4.59852 5.96421 4.65531 5.93591L5.78031 5.37341C5.81335 5.3569 5.84935 5.34706 5.8862 5.34444C5.92307 5.34186 5.96008 5.34652 5.99513 5.35822C6.03017 5.36992 6.06257 5.38843 6.09047 5.41265C6.11837 5.43686 6.14124 5.46634 6.15775 5.49941C6.17425 5.53246 6.1841 5.56843 6.18669 5.6053C6.1893 5.64215 6.1846 5.67916 6.1729 5.7142C6.1612 5.74927 6.14273 5.78167 6.11851 5.80957C6.09427 5.83747 6.06479 5.86034 6.03175 5.87685L4.90675 6.43935C4.86776 6.45876 4.82485 6.46885 4.78131 6.46888Z" fill="black"/>
<path d="M17.1563 6.07501V9.76501C17.1564 10.5719 16.8894 11.3561 16.3969 11.9953L13.8825 15.2663C13.6791 15.5315 13.5464 15.8442 13.4973 16.1748C13.448 16.5055 13.4838 16.8433 13.6013 17.1563H9.04785C9.08455 16.324 9.22726 15.4999 9.47254 14.7038L9.66941 14.0653C9.91061 13.3075 10.3403 12.6233 10.9182 12.0769L12.2541 10.7409C12.378 10.611 12.5453 10.5312 12.7242 10.5166C12.9032 10.5021 13.0812 10.5539 13.2244 10.6622C13.3009 10.7243 13.3634 10.8018 13.408 10.8896C13.4526 10.9774 13.4783 11.0736 13.4833 11.172C13.4884 11.2704 13.4727 11.3687 13.4373 11.4606C13.4019 11.5526 13.3476 11.636 13.2779 11.7056L15.3675 9.61876L15.691 6.04407C15.7045 5.86328 15.7823 5.69332 15.9102 5.56488C16.0381 5.43646 16.2078 5.35802 16.3885 5.34376C16.4874 5.33931 16.5862 5.35492 16.679 5.38963C16.7717 5.42434 16.8565 5.47744 16.9282 5.54575C16.9999 5.61404 17.0571 5.69614 17.0963 5.78709C17.1355 5.87802 17.1559 5.97595 17.1563 6.07501Z" fill="black"/>
<path d="M11.8069 15.1876C12.0707 15.1879 12.331 15.1265 12.5669 15.0084C12.8027 14.8902 13.0077 14.7185 13.1654 14.507L14.9429 12.1388C15.6524 11.1935 16.0619 10.057 16.1185 8.87633L16.2844 5.35789L16.2875 5.35423C16.3934 5.33494 16.5022 5.33905 16.6063 5.3663C16.7104 5.39355 16.8072 5.44328 16.8901 5.51201C16.9729 5.58072 17.0396 5.66673 17.0856 5.76401C17.1316 5.8613 17.1557 5.96747 17.1563 6.07508V9.76508C17.1564 10.572 16.8894 11.3562 16.3969 11.9954L13.8825 15.2663C13.6791 15.5316 13.5464 15.8443 13.4973 16.1749C13.448 16.5056 13.4838 16.8434 13.6013 17.1563H9.04785C9.0514 17.0736 9.05609 16.991 9.06191 16.9083C9.08081 16.6273 9.15968 16.3536 9.29319 16.1055C9.4267 15.8576 9.61173 15.641 9.83589 15.4705C10.06 15.3 10.3181 15.1794 10.5928 15.117C10.8674 15.0545 11.1522 15.0515 11.4281 15.1083L11.8069 15.1876Z" fill="black"/>
<path d="M13.2781 10.7115C13.2125 10.6456 13.1345 10.5935 13.0485 10.5582C12.9625 10.5229 12.8704 10.5051 12.7775 10.5059C12.8798 10.6406 12.93 10.8079 12.9186 10.9768C12.9072 11.1456 12.8351 11.3046 12.7156 11.4244L11.5875 12.5525C11.4757 12.6644 11.4128 12.8162 11.4128 12.9744C11.4128 13.1326 11.4757 13.2844 11.5875 13.3963L13.2778 11.7057C13.4097 11.5739 13.4838 11.3951 13.4838 11.2086C13.4839 11.0222 13.4099 10.8434 13.2781 10.7115Z" fill="black"/>
<path d="M0.84375 6.07501V9.76501C0.843657 10.5719 1.11067 11.3561 1.60312 11.9953L4.1175 15.2663C4.32098 15.5315 4.45359 15.8442 4.50278 16.1748C4.552 16.5055 4.5162 16.8433 4.39875 17.1563H8.95219C8.91548 16.324 8.77278 15.4999 8.5275 14.7038L8.33063 14.0653C8.08943 13.3075 7.65976 12.6233 7.08187 12.0769L5.74594 10.7409C5.62208 10.611 5.45473 10.5312 5.2758 10.5166C5.09684 10.5021 4.91884 10.5539 4.77562 10.6622C4.69915 10.7243 4.6366 10.8018 4.592 10.8896C4.54739 10.9774 4.52174 11.0736 4.51671 11.172C4.51167 11.2704 4.52737 11.3687 4.56275 11.4606C4.59816 11.5526 4.65247 11.636 4.72219 11.7056L2.6325 9.61876L2.30906 6.04407C2.29553 5.86328 2.21777 5.69332 2.08985 5.56488C1.96192 5.43646 1.79227 5.35802 1.61156 5.34376C1.51263 5.33931 1.41382 5.35492 1.32107 5.38963C1.22831 5.42434 1.14353 5.47744 1.07182 5.54575C1.00011 5.61404 0.942933 5.69614 0.903741 5.78709C0.864548 5.87802 0.844144 5.97595 0.84375 6.07501Z" fill="black"/>
<path d="M6.19313 15.1876C5.92931 15.1879 5.66907 15.1265 5.43319 15.0084C5.19733 14.8902 4.99236 14.7185 4.83469 14.507L3.05719 12.1388C2.34769 11.1935 1.93815 10.057 1.88156 8.87633L1.71562 5.35789L1.71253 5.35423C1.60667 5.33494 1.49786 5.33905 1.39377 5.3663C1.28967 5.39355 1.1928 5.44328 1.10999 5.51201C1.02718 5.58072 0.960421 5.66673 0.914425 5.76401C0.868427 5.8613 0.844304 5.96747 0.84375 6.07508V9.76508C0.843657 10.572 1.11067 11.3562 1.60312 11.9954L4.1175 15.2663C4.32098 15.5316 4.45359 15.8443 4.50278 16.1749C4.552 16.5056 4.5162 16.8434 4.39875 17.1563H8.95219C8.94862 17.0736 8.94395 16.991 8.93813 16.9083C8.91922 16.6273 8.84036 16.3536 8.70685 16.1055C8.57334 15.8576 8.38831 15.641 8.16415 15.4705C7.94 15.3 7.68192 15.1794 7.40728 15.117C7.13267 15.0545 6.84785 15.0515 6.57197 15.1083L6.19313 15.1876Z" fill="black"/>
<path d="M4.72187 10.7115C4.78743 10.6456 4.8655 10.5935 4.95145 10.5582C5.03743 10.5229 5.12957 10.5051 5.22249 10.5059C5.12012 10.6406 5.07 10.8079 5.08136 10.9768C5.09272 11.1456 5.16484 11.3046 5.28437 11.4244L6.41218 12.5525C6.524 12.6644 6.58684 12.8162 6.58684 12.9744C6.58684 13.1326 6.524 13.2844 6.41218 13.3963L4.72187 11.7057C4.59004 11.5738 4.51599 11.395 4.51599 11.2086C4.51599 11.0221 4.59004 10.8433 4.72187 10.7115Z" fill="black"/>
</g>
<defs>
<clipPath id="clip0_125_10142">
<rect width="18" height="18" fill="white"/>
</clipPath>
</defs>
</svg>
