<svg width="65" height="65" viewBox="0 0 65 65" fill="none" xmlns="http://www.w3.org/2000/svg">
<circle cx="32.5" cy="32.5" r="32.5" fill="#C2FCA8"/>
<g clip-path="url(#clip0_257_399)">
<path d="M17.3532 22.0052C17.4586 22.5488 17.7499 23.0388 18.1771 23.3911C18.6043 23.7434 19.1408 23.9361 19.6945 23.9361C20.2482 23.9361 20.7847 23.7434 21.2119 23.3911C21.6391 23.0388 21.9304 22.5488 22.0358 22.0052L22.4014 20.1241C22.4496 19.7686 22.4211 19.4068 22.3179 19.0631C22.2147 18.7194 22.0392 18.4018 21.8031 18.1315C21.567 17.8613 21.2758 17.6447 20.9491 17.4963C20.6224 17.3478 20.2677 17.271 19.9089 17.271H19.4802C19.1213 17.271 18.7666 17.3478 18.4399 17.4963C18.1132 17.6447 17.822 17.8613 17.5859 18.1315C17.3499 18.4018 17.1743 18.7194 17.0711 19.0631C16.9679 19.4068 16.9394 19.7686 16.9876 20.1241L17.3532 22.0052Z" fill="#2D3E50"/>
<path d="M25.0927 37.3565C25.1107 37.3719 25.125 37.3911 25.1346 37.4128C25.1442 37.4345 25.1489 37.458 25.1482 37.4817C25.1476 37.5054 25.1416 37.5287 25.1308 37.5498C25.12 37.5709 25.1046 37.5893 25.0857 37.6037C24.8611 37.7732 24.5844 37.8592 24.3032 37.8468C24.094 37.8389 23.8909 37.7741 23.7158 37.6593C23.6558 39.7915 23.5983 40.5588 23.5358 42.7059C23.5183 43.4608 23.4858 44.6231 23.4583 45.6029C23.4418 46.2081 23.191 46.7832 22.7588 47.207C22.3265 47.6309 21.7466 47.8704 21.1412 47.875L19.694 47.885L18.2468 47.875C17.6415 47.8699 17.0619 47.6303 16.6297 47.2065C16.1976 46.7828 15.9466 46.2079 15.9297 45.6029C15.9022 44.6231 15.8722 43.4608 15.8522 42.7059C15.7922 40.5588 15.7322 39.7915 15.6722 37.6593C15.4973 37.7744 15.2941 37.8393 15.0848 37.8468C14.776 37.8605 14.4737 37.7555 14.2399 37.5533C14.0061 37.3511 13.8586 37.0671 13.8276 36.7595C13.8226 36.7348 13.8201 36.7097 13.8201 36.6845V36.667C13.8076 36.2646 13.7851 35.8647 13.7626 35.4622C13.7376 35.0623 13.7101 34.6624 13.6776 34.26C13.6501 33.8575 13.6101 33.4576 13.5776 33.0577L13.4626 31.8554C13.4601 31.8204 13.4601 31.7854 13.4626 31.7504L13.4826 31.5705L13.5976 30.4707C13.6301 30.1032 13.6676 29.7358 13.6976 29.3708C13.7301 29.0034 13.7551 28.6335 13.7826 28.2636C13.8051 27.8961 13.8276 27.5262 13.8376 27.1538C13.8464 26.8652 13.9229 26.5827 14.061 26.3291C14.199 26.0756 14.3948 25.858 14.6324 25.694C14.6594 25.6744 14.6878 25.6568 14.7174 25.6415C14.9684 25.4872 15.2553 25.401 15.5498 25.3915C15.9647 25.3341 16.3821 25.2816 16.802 25.2316C17.0545 25.1966 17.3069 25.1666 17.5569 25.1366C17.6726 25.1156 17.7919 25.1309 17.8985 25.1806C18.0051 25.2303 18.0936 25.3119 18.1518 25.4141C18.4642 25.899 18.7892 26.3814 19.1116 26.8638C19.2966 27.1412 19.484 27.4162 19.689 27.7236C19.689 27.7186 19.694 27.7186 19.694 27.7161C19.6965 27.7186 19.699 27.7186 19.7015 27.7236C19.9065 27.4162 20.0914 27.1412 20.2789 26.8638C20.6013 26.3814 20.9238 25.899 21.2387 25.4141C21.2964 25.312 21.3844 25.2304 21.4906 25.1807C21.5968 25.131 21.7158 25.1156 21.8311 25.1366C22.0836 25.1666 22.336 25.1966 22.5885 25.2316C23.0059 25.2816 23.4258 25.3341 23.8408 25.3915C24.0076 25.3969 24.1728 25.4272 24.3307 25.4815L22.671 29.3733L22.5985 29.5433C22.3476 30.1367 22.3316 30.8032 22.5535 31.408L24.3457 36.3096C24.4977 36.7185 24.7555 37.0797 25.0927 37.3565Z" fill="#2D3E50"/>
<path d="M29.3697 20.5222C29.4814 21.0972 29.7897 21.6154 30.2416 21.9879C30.6936 22.3605 31.2611 22.5643 31.8468 22.5643C32.4325 22.5643 33 22.3605 33.452 21.9879C33.9039 21.6154 34.2122 21.0972 34.3239 20.5222L34.7088 18.535C34.76 18.1591 34.7301 17.7765 34.6211 17.4131C34.5122 17.0496 34.3267 16.7137 34.0771 16.4279C33.8275 16.1421 33.5197 15.913 33.1742 15.7561C32.8287 15.5992 32.4537 15.518 32.0743 15.5181H31.6193C31.2399 15.518 30.8648 15.5992 30.5194 15.7561C30.1739 15.913 29.8661 16.1421 29.6165 16.4279C29.3669 16.7137 29.1814 17.0496 29.0725 17.4131C28.9635 17.7765 28.9336 18.1591 28.9848 18.535L29.3697 20.5222Z" fill="#1D75B8"/>
<path d="M39.9429 30.0307L39.8729 29.8682L37.9083 25.2565C37.8781 25.1871 37.8439 25.1195 37.8058 25.0541C37.5844 24.6699 37.2308 24.3794 36.811 24.2367C36.8096 24.2369 36.8082 24.2367 36.8069 24.2363C36.8056 24.2359 36.8045 24.2351 36.8035 24.2342C36.6512 24.1764 36.4926 24.1369 36.3311 24.1167C35.8586 24.0517 35.3812 23.9917 34.9063 23.9342C34.6389 23.8993 34.3714 23.8668 34.1065 23.8343C33.9845 23.8122 33.8587 23.8285 33.7463 23.8809C33.634 23.9332 33.5406 24.0191 33.4791 24.1267C33.1466 24.6416 32.8042 25.149 32.4642 25.6614C32.2668 25.9539 32.0693 26.2463 31.8544 26.5713C31.8547 26.5701 31.8548 26.5689 31.8546 26.5677C31.8543 26.5665 31.8538 26.5654 31.8531 26.5644C31.8524 26.5634 31.8514 26.5626 31.8504 26.5621C31.8493 26.5616 31.8481 26.5613 31.8469 26.5613C31.8456 26.5613 31.8444 26.5616 31.8434 26.5621C31.8423 26.5626 31.8413 26.5634 31.8406 26.5644C31.8399 26.5654 31.8394 26.5665 31.8392 26.5677C31.8389 26.5689 31.839 26.5701 31.8394 26.5713C31.6244 26.2463 31.4269 25.9539 31.2295 25.6614C30.8895 25.149 30.5471 24.6416 30.2147 24.1267C30.1531 24.0191 30.0597 23.9332 29.9474 23.8809C29.835 23.8285 29.7092 23.8122 29.5873 23.8343C29.3223 23.8668 29.0549 23.8993 28.7874 23.9342C28.3125 23.9917 27.8351 24.0517 27.3627 24.1167C27.2011 24.1369 27.0425 24.1764 26.8902 24.2342C26.8893 24.2351 26.8881 24.2359 26.8868 24.2363C26.8855 24.2367 26.8841 24.2369 26.8827 24.2367C26.4629 24.3794 26.1094 24.6699 25.8879 25.0541C25.8498 25.1195 25.8156 25.1871 25.7855 25.2565L23.8208 29.8682L23.7508 30.0307C23.6237 30.3312 23.6148 30.6687 23.7258 30.9755L23.9283 31.5254L25.518 35.8746C25.6271 36.1689 25.843 36.4113 26.1228 36.5535C26.4026 36.6957 26.7257 36.7273 27.0277 36.642C27.1847 36.5974 27.3314 36.5224 27.4593 36.4212C27.5873 36.3199 27.694 36.1944 27.7734 36.0519C27.8528 35.9093 27.9033 35.7525 27.922 35.5904C27.9408 35.4283 27.9274 35.2641 27.8826 35.1072L27.5026 33.77L26.6428 30.7505L27.3802 29.5757C27.3851 29.6607 27.3901 29.7407 27.3901 29.8232C27.3977 30.0931 27.4077 30.3606 27.4151 30.6306C27.4226 30.8805 27.4276 31.1305 27.4351 31.3829L28.45 34.9448C28.5381 35.2564 28.5425 35.5857 28.4626 35.8995C28.3828 36.2133 28.2215 36.5005 27.995 36.7319C27.876 36.8518 27.7415 36.9552 27.5951 37.0394C27.6576 39.3215 27.7201 40.1264 27.7851 42.4084C27.8051 43.2083 27.8376 44.4381 27.8676 45.4729C27.8853 46.1126 28.1505 46.7204 28.6074 47.1685C29.0643 47.6165 29.6772 47.8698 30.3171 47.8749L31.8469 47.8849L33.3766 47.8749C34.0165 47.8698 34.6294 47.6165 35.0863 47.1685C35.5432 46.7204 35.8085 46.1126 35.8261 45.4729C35.8561 44.4381 35.8886 43.2083 35.9086 42.4084C35.9736 40.1263 36.0361 39.3215 36.0986 37.0394C35.9522 36.9552 35.8177 36.8518 35.6987 36.7319C35.4722 36.5005 35.3109 36.2133 35.2311 35.8995C35.1512 35.5857 35.1556 35.2563 35.2437 34.9448L36.2586 31.3829C36.2661 31.1305 36.2711 30.8805 36.2786 30.6306C36.2861 30.3606 36.296 30.0931 36.3036 29.8232C36.3036 29.7407 36.3086 29.6607 36.3135 29.5757L37.0509 30.7505L36.1911 33.77L35.8112 35.1072C35.7235 35.4168 35.7593 35.7483 35.9108 36.0321C36.0624 36.3158 36.318 36.5298 36.624 36.6292C36.9301 36.7285 37.2626 36.7053 37.552 36.5647C37.8413 36.424 38.0649 36.1766 38.1757 35.8746L39.7654 31.5254L39.9679 30.9755C40.0789 30.6687 40.07 30.3312 39.9429 30.0307Z" fill="#1D75B8"/>
<path d="M46.3404 22.0052C46.235 22.5488 45.9437 23.0388 45.5165 23.3911C45.0893 23.7434 44.5528 23.9361 43.9991 23.9361C43.4453 23.9361 42.9089 23.7434 42.4817 23.3911C42.0545 23.0388 41.7632 22.5488 41.6577 22.0052L41.2922 20.1241C41.244 19.7686 41.2725 19.4068 41.3757 19.0631C41.4789 18.7194 41.6544 18.4018 41.8905 18.1315C42.1266 17.8613 42.4178 17.6447 42.7445 17.4963C43.0712 17.3478 43.4259 17.271 43.7847 17.271H44.2134C44.5723 17.271 44.927 17.3478 45.2537 17.4963C45.5804 17.6447 45.8716 17.8613 46.1077 18.1315C46.3437 18.4018 46.5193 18.7194 46.6225 19.0631C46.7257 19.4068 46.7542 19.7686 46.706 20.1241L46.3404 22.0052Z" fill="#2D3E50"/>
<path d="M38.601 37.3565C38.583 37.3719 38.5686 37.3911 38.559 37.4128C38.5494 37.4345 38.5447 37.458 38.5454 37.4817C38.5461 37.5054 38.552 37.5287 38.5628 37.5498C38.5737 37.5709 38.5891 37.5893 38.6079 37.6037C38.8326 37.7732 39.1093 37.8592 39.3905 37.8468C39.5997 37.8389 39.8027 37.7741 39.9779 37.6594C40.0378 39.7915 40.0953 40.5588 40.1578 42.706C40.1753 43.4608 40.2078 44.6231 40.2353 45.6029C40.2518 46.2081 40.5026 46.7832 40.9349 47.207C41.3671 47.6309 41.947 47.8704 42.5524 47.875L43.9996 47.885L45.4469 47.875C46.0521 47.8699 46.6318 47.6303 47.0639 47.2066C47.4961 46.7828 47.747 46.2079 47.764 45.6029C47.7915 44.6231 47.8215 43.4608 47.8414 42.706C47.9014 40.5588 47.9614 39.7915 48.0214 37.6594C48.1964 37.7744 48.3995 37.8393 48.6088 37.8468C48.9176 37.8605 49.2199 37.7555 49.4537 37.5533C49.6875 37.3511 49.8351 37.0671 49.8661 36.7595C49.8711 36.7348 49.8736 36.7097 49.8736 36.6845V36.667C49.8861 36.2646 49.9086 35.8647 49.9311 35.4622C49.9561 35.0623 49.9836 34.6624 50.0161 34.26C50.0435 33.8575 50.0836 33.4576 50.116 33.0577L50.231 31.8554C50.2335 31.8204 50.2335 31.7853 50.231 31.7504L50.211 31.5704L50.096 30.4706C50.0636 30.1032 50.0261 29.7358 49.9961 29.3708C49.9636 29.0034 49.9386 28.6335 49.9111 28.2635C49.8886 27.8961 49.8661 27.5262 49.8561 27.1537C49.8473 26.8651 49.7707 26.5827 49.6327 26.3291C49.4946 26.0755 49.2989 25.858 49.0612 25.694C49.0343 25.6744 49.0059 25.6568 48.9762 25.6415C48.7253 25.4871 48.4384 25.401 48.1439 25.3916C47.729 25.3341 47.3115 25.2816 46.8916 25.2316C46.6392 25.1966 46.3867 25.1666 46.1368 25.1366C46.0211 25.1156 45.9017 25.1309 45.7952 25.1806C45.6886 25.2303 45.6001 25.3119 45.5419 25.4141C45.2294 25.899 44.9045 26.3814 44.582 26.8638C44.3971 27.1412 44.2096 27.4162 44.0046 27.7236C44.0046 27.7186 43.9996 27.7186 43.9996 27.7161C43.9972 27.7186 43.9946 27.7186 43.9921 27.7236C43.7872 27.4162 43.6022 27.1412 43.4148 26.8638C43.0923 26.3814 42.7699 25.899 42.4549 25.4141C42.3972 25.312 42.3092 25.2304 42.203 25.1807C42.0969 25.131 41.9779 25.1156 41.8625 25.1366C41.6101 25.1666 41.3576 25.1966 41.1052 25.2316C40.6877 25.2816 40.2678 25.3341 39.8529 25.3916C39.686 25.3969 39.5209 25.4272 39.363 25.4815L41.0227 29.3733L41.0952 29.5433C41.346 30.1367 41.3621 30.8032 41.1401 31.408L39.348 36.3096C39.1959 36.7185 38.9382 37.0797 38.601 37.3565Z" fill="#2D3E50"/>
</g>
<defs>
<clipPath id="clip0_257_399">
<rect width="37.9879" height="37.9879" fill="white" transform="translate(12.8529 12.7078)"/>
</clipPath>
</defs>
</svg>
