<svg width="65" height="65" viewBox="0 0 65 65" fill="none" xmlns="http://www.w3.org/2000/svg">
<circle cx="32.5" cy="32.5" r="32.5" fill="#FFB9B9"/>
<g clip-path="url(#clip0_257_397)">
<path fill-rule="evenodd" clip-rule="evenodd" d="M40.1843 43.5852C40.0474 43.5852 39.9104 43.5396 39.7963 43.4483L32.4696 36.1215L25.1428 43.4483C24.9374 43.6537 24.595 43.6537 24.3896 43.4483L21.5137 40.5495C21.3082 40.3441 21.3082 40.0017 21.5137 39.7963L28.8404 32.4696L21.5137 25.1428C21.3082 24.9374 21.3082 24.595 21.5137 24.3896L24.3896 21.5137C24.595 21.3082 24.9374 21.3082 25.1428 21.5137L32.4696 28.8404L39.7963 21.5137C40.0017 21.3082 40.3441 21.3082 40.5495 21.5137L43.4483 24.3896C43.6537 24.595 43.6537 24.9374 43.4483 25.1428L36.1215 32.4696L43.4483 39.7963C43.6537 40.0017 43.6537 40.3441 43.4483 40.5495L40.5495 43.4483C40.4582 43.5396 40.3213 43.5852 40.1843 43.5852ZM32.4696 51.9619C21.7191 51.9619 13 43.2429 13 32.4696C13 21.7191 21.7191 13 32.4696 13C37.6736 13 42.5809 15.0314 46.2557 18.7062C53.8564 26.3069 53.8564 38.6323 46.2557 46.2557C42.5809 49.9305 37.6736 51.9619 32.4696 51.9619ZM32.4696 14.0728C22.3353 14.0728 14.0728 22.3353 14.0728 32.4696C14.0728 42.6266 22.3353 50.8892 32.4696 50.8892C42.6266 50.8892 50.8892 42.6266 50.8892 32.4696C50.8892 22.3353 42.6266 14.0728 32.4696 14.0728ZM32.4696 34.8205C32.6065 34.8205 32.7435 34.889 32.8576 34.9803L40.1843 42.307L42.307 40.1843L34.9803 32.8576C34.7749 32.6522 34.7749 32.3098 34.9803 32.1044L42.307 24.7776L40.1843 22.6549L32.8576 29.9817C32.6522 30.1871 32.3098 30.1871 32.1044 29.9817L24.7776 22.6549L22.6549 24.7776L29.9817 32.1044C30.1871 32.3098 30.1871 32.6522 29.9817 32.8576L22.6549 40.1843L24.7776 42.307L32.1044 34.9803C32.1957 34.889 32.3326 34.8205 32.4696 34.8205Z" fill="#333333"/>
<path fill-rule="evenodd" clip-rule="evenodd" d="M32.8576 34.9802L40.1844 42.3069L42.3071 40.1842L34.9803 32.8575C34.7749 32.652 34.7749 32.3097 34.9803 32.1043L42.3071 24.7775L40.1844 22.6548L32.8576 29.9815C32.6522 30.187 32.3098 30.187 32.1044 29.9815L24.7776 22.6548L22.6549 24.7775L29.9817 32.1043C30.1871 32.3097 30.1871 32.652 29.9817 32.8575L22.6549 40.1842L24.7776 42.3069L32.1044 34.9802C32.1957 34.8889 32.3327 34.8204 32.4696 34.8204C32.6066 34.8204 32.7435 34.8889 32.8576 34.9802Z" fill="#FF1100"/>
<path fill-rule="evenodd" clip-rule="evenodd" d="M32.4696 28.8404L39.7963 21.5136C40.0018 21.3082 40.3441 21.3082 40.5496 21.5136L43.4483 24.3896C43.6537 24.595 43.6537 24.9374 43.4483 25.1428L36.1215 32.4695L43.4483 39.7963C43.6537 40.0017 43.6537 40.3441 43.4483 40.5495L40.5496 43.4483C40.4583 43.5396 40.3213 43.5852 40.1844 43.5852C40.0474 43.5852 39.9105 43.5396 39.7963 43.4483L32.4696 36.1215L25.1428 43.4483C24.9374 43.6537 24.595 43.6537 24.3896 43.4483L21.5137 40.5495C21.3082 40.3441 21.3082 40.0017 21.5137 39.7963L28.8404 32.4695L21.5137 25.1428C21.3082 24.9374 21.3082 24.595 21.5137 24.3896L24.3896 21.5136C24.595 21.3082 24.9374 21.3082 25.1428 21.5136L32.4696 28.8404ZM50.8892 32.4695C50.8892 22.3353 42.6266 14.0728 32.4696 14.0728C22.3354 14.0728 14.0728 22.3353 14.0728 32.4695C14.0728 42.6266 22.3354 50.8892 32.4696 50.8892C42.6266 50.8892 50.8892 42.6266 50.8892 32.4695Z" fill="#F1F1F1"/>
</g>
<defs>
<clipPath id="clip0_257_397">
<rect width="38.9619" height="38.9619" fill="white" transform="translate(13 13)"/>
</clipPath>
</defs>
</svg>
