<svg width="18" height="18" viewBox="0 0 18 18" fill="none" xmlns="http://www.w3.org/2000/svg">
<g clip-path="url(#clip0_128_13266)">
<path d="M17.3382 8.00249L14.0272 4.68997V1.42286C14.0272 1.33845 14.0082 1.25514 13.9715 1.17914C13.9347 1.10314 13.8813 1.03641 13.8152 0.983948C13.7491 0.931483 13.672 0.894632 13.5896 0.876149C13.5073 0.857665 13.4218 0.858027 13.3396 0.877206L4.40577 2.96177C4.28261 2.99051 4.1728 3.06007 4.09419 3.15914C4.01557 3.25821 3.97279 3.38095 3.97279 3.50742V8.18961H0.995494C0.933535 8.18961 0.872183 8.20182 0.81494 8.22553C0.757697 8.24924 0.705685 8.28399 0.661873 8.3278C0.618061 8.37161 0.583307 8.42362 0.559596 8.48087C0.535885 8.53811 0.523682 8.59946 0.523682 8.66142V16.666C0.523681 16.7279 0.535885 16.7893 0.559595 16.8465C0.583306 16.9038 0.618059 16.9558 0.661871 16.9996C0.705683 17.0434 0.757695 17.0781 0.814939 17.1019C0.872182 17.1256 0.933534 17.1378 0.995494 17.1378H17.0045C17.0665 17.1378 17.1278 17.1256 17.1851 17.1019C17.2423 17.0781 17.2943 17.0434 17.3382 16.9996C17.382 16.9558 17.4167 16.9038 17.4404 16.8465C17.4641 16.7893 17.4763 16.7279 17.4763 16.666V8.33604C17.4765 8.27407 17.4644 8.21268 17.4406 8.15542C17.4169 8.09817 17.3821 8.04619 17.3382 8.00249ZM3.96959 16.1941H1.4673V9.13325H3.97278L3.96959 16.1941ZM7.07222 14.4981H5.4714V12.4713H7.07222V14.4981ZM7.07222 10.8053H5.4714V8.77857H7.07222V10.8053ZM7.07222 7.11261H5.4714V5.08585H7.07222V7.11261ZM9.78617 14.4981H8.18534V12.4713H9.78617L9.78617 14.4981ZM9.78617 10.8053H8.18534V8.77857H9.78617L9.78617 10.8053ZM9.78617 7.11261H8.18534V5.08585H9.78617L9.78617 7.11261ZM12.5001 14.4981H10.8993V12.4713H12.5001L12.5001 14.4981ZM12.5001 10.8053H10.8993V8.77857H12.5001L12.5001 10.8053ZM12.5001 7.11261H10.8993V5.08585H12.5001L12.5001 7.11261ZM16.5327 14.4538H14.7192C14.6792 14.4428 14.6381 14.4372 14.5967 14.437H14.0272V6.02474L16.5327 8.53139L16.5327 14.4538Z" fill="white"/>
<path d="M3.24792 10.4465H2.18896V11.7873H3.24792V10.4465Z" fill="white"/>
<path d="M3.24792 13.54H2.18896V14.8808H3.24792V13.54Z" fill="white"/>
<path d="M15.8094 9.61572H14.7505V10.7456H15.8094V9.61572Z" fill="white"/>
<path d="M15.8094 12.2227H14.7505V13.3525H15.8094V12.2227Z" fill="white"/>
</g>
<defs>
<clipPath id="clip0_128_13266">
<rect width="18" height="18" fill="white"/>
</clipPath>
</defs>
</svg>
