<svg width="18" height="18" viewBox="0 0 18 18" fill="none" xmlns="http://www.w3.org/2000/svg">
<path d="M8.99997 2.15356C5.22717 2.15356 2.15997 5.22076 2.15997 8.99356C2.15997 12.7664 5.22717 15.8336 8.99997 15.8336C12.7728 15.8336 15.84 12.7664 15.84 8.99356C15.84 5.22076 12.7728 2.15356 8.99997 2.15356ZM12.8304 9.64157H11.7936L10.7856 11.6575C10.6559 11.8736 10.44 12.0176 10.1952 12.0176C9.95037 12.0176 9.71997 11.8736 9.61923 11.6576L7.80477 8.07202L7.19997 9.28159C7.08476 9.49755 6.8688 9.64159 6.62402 9.64159H5.18402C4.82402 9.64159 4.53605 9.35362 4.53605 8.99362C4.53605 8.63362 4.82402 8.34564 5.18402 8.34564H6.22082L7.2288 6.32969C7.44476 5.89767 8.16475 5.89767 8.38082 6.32969L10.1808 9.91529L10.8 8.69124C10.9152 8.47528 11.1311 8.33124 11.3759 8.33124H12.8159C13.1759 8.33124 13.4639 8.61922 13.4639 8.97922C13.464 9.33922 13.1904 9.64157 12.8304 9.64157Z" fill="white"/>
</svg>
